<?xml version="1.0" encoding="UTF-8"?><svg xmlns="http://www.w3.org/2000/svg" viewBox="0 0 670.04 670.04"><defs><style>.cls-1{fill:#fff;}.cls-2{fill:#263a8b;}.cls-3{fill:#e4e04d;}.cls-4{fill:#f0e66e;}</style></defs><g id="base"><path class="cls-2" d="m335.02,660.04c-86.82,0-168.44-33.81-229.83-95.2C43.81,503.46,10,421.84,10,335.02S43.81,166.59,105.2,105.2C166.59,43.81,248.21,10,335.02,10s168.44,33.81,229.83,95.2c61.39,61.39,95.2,143.01,95.2,229.83s-33.81,168.44-95.2,229.83c-61.39,61.39-143.01,95.2-229.83,95.2Z"/><path class="cls-4" d="m335.02,20c42.54,0,83.79,8.33,122.61,24.75,37.51,15.87,71.2,38.58,100.14,67.52,28.94,28.94,51.65,62.63,67.52,100.14,16.42,38.82,24.75,80.08,24.75,122.61s-8.33,83.79-24.75,122.61c-15.87,37.51-38.58,71.2-67.52,100.14-28.94,28.94-62.63,51.65-100.14,67.52-38.82,16.42-80.08,24.75-122.61,24.75s-83.79-8.33-122.61-24.75c-37.51-15.87-71.2-38.58-100.14-67.52-28.94-28.94-51.65-62.63-67.52-100.14-16.42-38.82-24.75-80.08-24.75-122.61s8.33-83.79,24.75-122.61c15.87-37.51,38.58-71.2,67.52-100.14,28.94-28.94,62.63-51.65,100.14-67.52,38.82-16.42,80.08-24.75,122.61-24.75m0-20C149.99,0,0,149.99,0,335.02s149.99,335.02,335.02,335.02,335.02-149.99,335.02-335.02S520.05,0,335.02,0h0Z"/></g><g id="asterisk"><path class="cls-1" d="m364.15,116.49l-23,12.43,23,12.48-3.63,6.32-21.65-13v24.14h-7.41v-24.14l-21.65,13-3.63-6.32,23.05-12.48-23.05-12.43,3.63-6.37,21.65,13v-24.14h7.41v24.14l21.65-13,3.63,6.37Z"/></g><g id="crutch"><path class="cls-4" d="m305.24,230.73c-12.51-12.49-25.59-25.55-38.42-38.37,6.1-6.11,12.43-12.44,18.4-18.42,12.67,12.67,25.71,25.73,38.4,38.42-5.8,5.79-12.2,12.19-18.37,18.37Z"/><path class="cls-4" d="m377.82,381.4c7.72-3.66,15.78-7.59,23.97-11.25.92-.41,2.9.35,3.77,1.2,11.24,11.07,22.37,22.26,33.53,33.41,16.32,16.32,32.64,32.64,48.96,48.96.99.99,1.93,2.03,2.68,2.82-6.53,6.52-12.87,12.85-18.89,18.86l-94.01-94.01Z"/><path class="cls-4" d="m355.56,260.46c2.63-2.57,5.59-5.47,8.42-8.22,13.44,7.35,15.04,20.63,16.68,33.26-8.11-8.09-16.56-16.52-25.09-25.04Z"/><path class="cls-4" d="m246.89,118.92c3.12,1.68,6.77,2.81,9.28,5.16,8.19,7.66,16.01,15.72,23.88,23.71,3.33,3.38,3.31,6.88.24,10.44-.6.69-1.27,1.31-1.92,1.96-34.5,34.5-69,69.01-103.51,103.5-5.6,5.6-8.44,5.58-14.1-.07-7.02-7.01-14.06-13.99-21.03-21.04-7.06-7.14-7.12-14.89-.08-21.95,31.8-31.85,63.65-63.66,95.46-95.49,3.15-3.15,6.69-5.38,11.77-6.21Z"/><path class="cls-4" d="m188.49,270.39c6.03-6.04,12.36-12.38,18.81-18.83.66.62,1.54,1.39,2.36,2.21,19,18.99,37.97,38.01,57.03,56.95,1.85,1.84,2.46,3.43,1.85,6.12-2.12,9.39-3.86,18.87-5.65,27.81-24.78-24.73-49.63-49.54-74.39-74.25Z"/><path class="cls-4" d="m532.96,491.37c-1.14,1.93-1.88,3.94-3.24,5.35-5.98,6.2-12.07,12.28-18.24,18.29-3.64,3.54-7.38,3.55-11.01.03-6.18-6-12.26-12.09-18.29-18.25-3.59-3.66-3.67-7.39-.15-11.01,6.18-6.37,12.46-12.64,18.82-18.82,3.13-3.04,7.04-3.09,10.15-.07,6.46,6.27,12.8,12.66,19.04,19.16,1.26,1.32,1.84,3.29,2.94,5.33Z"/><path class="cls-4" d="m535.33,234.72c-2.72,3.57-5.16,7.41-8.21,10.67-5.98,6.37-12.29,12.43-18.49,18.6-5.15,5.13-8.25,5.18-13.28.15-34.88-34.87-69.76-69.74-104.62-104.63-4.75-4.75-4.75-8-.09-12.69,7.18-7.21,14.36-14.42,21.59-21.59,7.45-7.38,15.08-7.4,22.52.03,31.76,31.72,63.51,63.44,95.17,95.26,2.26,2.27,3.68,5.38,5.51,8.08l-.1,6.11Z"/><path class="cls-4" d="m384.03,173.13c6.54,6.51,12.91,12.85,19.5,19.41-.78.82-1.73,1.86-2.72,2.85-19.37,19.38-38.73,38.75-58.11,58.12-5.99,5.99-6.03,8.76-.15,14.63,17.06,17.06,34.12,34.12,51.05,51.06,22.85-22.85,45.57-45.58,68.01-68.02,7.06,7.08,13.44,13.47,20.01,20.06-.34.37-1.09,1.24-1.9,2.05-27.84,27.87-55.71,55.72-83.51,83.63-3.34,3.36-7.16,5.39-11.82,6.31-29.01,5.71-58.01,11.48-86.98,17.44-2.59.53-5.35,2.07-7.24,3.94-29.8,29.6-59.48,59.33-89.17,89.05-.82.83-1.45,1.85-1.84,2.35-6.78-6.76-13.18-13.15-20.54-20.49.67-.41,2.23-1,3.3-2.08,29.65-29.57,59.28-59.16,88.8-88.86,1.82-1.83,3.06-4.15,3.58-6.68,5.97-29.2,11.64-58.46,17.7-87.63.75-3.63,2.56-7.62,5.12-10.21,28.51-28.86,57.26-57.48,85.95-86.17.27-.27.6-.49.95-.77Zm-66.51,110.27c-4.44,22.17-8.92,44.54-13.54,67.63,23.12-4.62,45.48-9.09,67.64-13.52-18.12-18.12-36.04-36.05-54.1-54.11Z"/><path class="cls-4" d="m190.97,491.09c-1.22,2.11-1.94,4.13-3.3,5.54-5.98,6.2-12.09,12.27-18.26,18.28-3.82,3.72-7.47,3.69-11.3-.06-6.06-5.93-12.06-11.93-17.98-18-3.06-3.14-3.07-8.16,0-11.3,6.01-6.17,12.1-12.26,18.25-18.28,3.62-3.54,7.34-3.49,11,.1,6.05,5.94,12.08,11.91,17.96,18.02,1.45,1.51,2.31,3.59,3.62,5.71Z"/></g><g id="basketball"><path class="cls-1" d="m327.37,483.98v-13.6c0-2.41-1.8-4.43-4.19-4.75-15.82-2.17-30.28-8.65-42.14-18.25-2.04-1.65-5.03-1.29-6.69.73-8.14,9.93-13.88,21.89-16.34,35.01-.55,2.94,1.73,5.66,4.73,5.66h59.83c2.65,0,4.8-2.15,4.8-4.8Z"/><path class="cls-1" d="m327.37,524.92v-16.34c0-2.65-2.15-4.8-4.8-4.8h-60.29c-2.94,0-5.19,2.61-4.75,5.52,2.13,14.25,8.09,27.23,16.81,37.88,1.66,2.03,4.66,2.4,6.71.75,11.86-9.59,26.32-16.08,42.14-18.25,2.39-.33,4.19-2.34,4.19-4.75Z"/><path class="cls-1" d="m327.37,445.47v-20.21c0-2.98-2.68-5.23-5.62-4.74-9.8,1.66-18.99,5.14-27.19,10.08-2.96,1.78-3.03,6.04-.2,8.02,8.05,5.65,17.32,9.67,27.33,11.56,2.95.56,5.68-1.73,5.68-4.73Z"/><path class="cls-3" d="m342.37,425.26v20.21c0,3,2.73,5.29,5.68,4.73,10.01-1.9,19.28-5.91,27.33-11.56,2.87-2.02,2.69-6.29-.32-8.1-8.17-4.91-17.31-8.36-27.07-10.01-2.94-.5-5.62,1.76-5.62,4.74Z"/><path class="cls-1" d="m327.37,570.03v-20.21c0-3-2.73-5.29-5.68-4.73-10.01,1.9-19.28,5.91-27.33,11.56-2.82,1.98-2.75,6.24.2,8.02,8.2,4.94,17.38,8.43,27.19,10.08,2.94.5,5.62-1.76,5.62-4.74Z"/><path class="cls-3" d="m342.37,470.37v13.6c0,2.65,2.15,4.8,4.8,4.8h59.83c3,0,5.28-2.72,4.73-5.66-2.47-13.12-8.2-25.08-16.34-35.01-1.66-2.03-4.66-2.38-6.69-.73-11.86,9.59-26.32,16.08-42.14,18.25-2.39.33-4.19,2.34-4.19,4.75Z"/><path class="cls-3" d="m342.37,508.58v16.34c0,2.41,1.8,4.43,4.19,4.75,15.82,2.17,30.28,8.65,42.14,18.25,2.04,1.65,5.04,1.29,6.71-.75,8.72-10.65,14.68-23.63,16.81-37.88.43-2.9-1.82-5.52-4.75-5.52h-60.29c-2.65,0-4.8,2.15-4.8,4.8Z"/><path class="cls-3" d="m342.37,549.82v20.21c0,2.98,2.68,5.23,5.62,4.74,9.8-1.66,18.99-5.14,27.19-10.08,2.96-1.78,3.03-6.04.2-8.02-8.05-5.65-17.32-9.67-27.33-11.56-2.95-.56-5.68,1.73-5.68,4.73Z"/></g></svg>